<svg xmlns="http://www.w3.org/2000/svg" width="595" height="600" viewBox="0 0 595 600" version="1.1">
	<path d="M 280 9.684 C 216.087 14.429, 157.850 38.012, 110 78.524 C 97.283 89.291, 78.390 109.305, 68.342 122.656 C -0.822 214.550, -10.265 334.355, 43.630 436.152 C 51.082 450.227, 63.697 469.538, 73.580 482 C 84.394 495.637, 110.020 520.482, 124.164 531.044 C 176.853 570.387, 234.577 590.021, 297.470 589.991 C 343.287 589.969, 384.597 580.253, 425.009 559.996 C 469.074 537.906, 503.191 508.617, 531.742 468.366 C 551.271 440.834, 565.023 412.252, 574.405 379.699 C 598.178 297.207, 584.836 209.382, 537.726 138.254 C 511.121 98.086, 478.200 67.689, 436.270 44.576 C 389.686 18.898, 331.343 5.871, 280 9.684 M 270.500 54.689 C 259.477 56.121, 241.761 59.536, 231.878 62.134 L 220.256 65.189 219.625 217.344 C 219.278 301.030, 218.713 406.251, 218.369 451.170 L 217.744 532.839 225.122 535.039 C 238.918 539.151, 250.939 541.922, 262.058 543.553 C 268.161 544.448, 273.305 545.027, 273.489 544.840 C 274.310 544.009, 275.218 54.013, 274.398 54.150 C 273.904 54.232, 272.150 54.475, 270.500 54.689 M 316.578 258.125 C 316.210 370.531, 315.817 481.298, 315.704 504.274 L 315.500 546.048 320 545.471 C 355.666 540.898, 379.105 534.105, 406.967 520.266 C 448.154 499.809, 482.737 467.700, 506.527 427.828 C 565.281 329.353, 550.660 204.694, 471.006 124.985 C 441.076 95.035, 405.895 74.250, 365.457 62.627 C 352.898 59.017, 335.211 55.519, 323.874 54.402 L 317.248 53.749 316.578 258.125 M 166.364 91.360 C 155.189 98.358, 146.671 104.614, 137.397 112.634 L 131.293 117.912 130.645 227.206 C 130.288 287.318, 129.708 368.467, 129.356 407.539 L 128.715 478.577 139.108 487.370 C 150.414 496.937, 174.599 513.735, 175.610 512.723 C 175.955 512.378, 176.611 431.411, 177.067 332.798 C 178.135 101.706, 178.148 84.999, 177.250 85.006 C 176.838 85.009, 171.939 87.868, 166.364 91.360 M 81.876 182.261 C 61.588 220.507, 52.850 255.686, 52.878 299 C 52.900 332.125, 57.541 357.017, 69.657 389 C 73.410 398.909, 85.635 424.656, 86.980 425.488 C 87.738 425.956, 89.607 175.311, 88.872 171.637 C 88.633 170.441, 86.128 174.246, 81.876 182.261" stroke="none" fill="#F5F7F8" fill-rule="evenodd"/>
</svg>